Coordinates
version=1
nRows=14
nColumns=28
inDegrees=yes

Units are S.I. units (second, meters, Newtons, ...)
Angles are in degrees.

endheader
time	pelvis_tilt	pelvis_list	pelvis_rotation	pelvis_tx	pelvis_ty	pelvis_tz	hip_flexion_r	hip_adduction_r	hip_rotation_r	knee_angle_r	ankle_angle_r	subtalar_angle_r	mtp_angle_r	hip_flexion_l	hip_adduction_l	hip_rotation_l	knee_angle_l	socket_flexion	socket_adduction	socket_rotation	socket_tx	socket_ty	socket_tz	foot_flex	lumbar_extension	lumbar_bending	lumbar_rotation
      0.31250000	      1.44827049	     -3.11690176	     -7.03667105	     -0.34456402	      1.01650165	      0.31119479	     18.88759748	      2.17327963	     -2.29780387	    -67.07895829	      2.09614929	    -13.13770040	     20.83929130	      5.12788576	      1.30328802	     19.38097747	    -17.73753851	     -6.16727399	      3.87888251	    -12.00442130	      0.00000000	     -0.01803745	      0.00000000	     -0.79228848	    -13.07285224	      0.41037178	      9.04851659
      0.31666667	      1.71480665	     -3.29620107	     -6.83321513	     -0.33923410	      1.01723126	      0.31093125	     19.00161728	      2.32295378	     -2.52814935	    -66.54684615	      2.95270732	    -12.06435837	     20.95891606	      4.38018347	      1.11500301	     19.17002493	    -17.41365002	     -6.09347988	      3.75919814	    -11.57595381	      0.00000000	     -0.01828365	      0.00000000	     -0.67142187	    -13.37048681	      0.67871229	      8.39747113
      0.32083333	      1.76265972	     -3.28091823	     -6.76914311	     -0.33453171	      1.01751221	      0.31082694	     19.53596551	      2.36367604	     -2.57729552	    -66.16446050	      3.01917412	    -12.06465260	     20.96143668	      4.03377956	      1.17150749	     19.17273724	    -17.43598074	     -6.18092862	      3.76904121	    -11.53890195	      0.00000000	     -0.01818256	      0.00000000	     -0.61861113	    -13.47733854	      0.65103623	      8.38902792
      0.32500000	      1.80451497	     -3.28231453	     -6.58183572	     -0.32943526	      1.01796572	      0.31070480	     19.91673632	      2.42953358	     -2.66142247	    -65.55960333	      3.32390010	    -12.03370923	     20.98755725	      3.65385497	      1.18556664	     19.17327718	    -17.38005617	     -6.20909667	      3.74153986	    -11.35418187	      0.00000000	     -0.01793331	      0.00000000	     -0.41109357	    -13.49506830	      0.62944649	      8.31038959
      0.32916667	      1.84769544	     -3.27630668	     -6.53113788	     -0.32481039	      1.01809569	      0.31063358	     20.45467457	      2.46671260	     -2.73636039	    -65.15549139	      3.41222338	    -12.02597107	     20.99391075	      3.30785465	      1.22438179	     19.16411039	    -17.38601447	     -6.29737998	      3.74186867	    -11.30638612	      0.00000000	     -0.01798990	      0.00000000	     -0.36657165	    -13.61553015	      0.62200165	      8.28299567
      0.33333333	      2.39845590	     -3.60716643	     -6.20798047	     -0.31939185	      1.01930936	      0.31029321	     20.09118297	      2.72050694	     -3.10549713	    -64.29085833	      4.24907880	    -11.34407284	     20.66427017	      2.14726446	      0.85992390	     19.00894843	    -16.78063823	     -6.05638085	      3.57764293	    -10.81031854	      0.00000000	     -0.01833618	      0.00000000	     -0.15978955	    -14.24632806	      1.02278847	      7.68933033
      0.33750000	      2.40674565	     -3.58655845	     -6.10563275	     -0.31452893	      1.01955196	      0.31023119	     20.54901773	      2.75349385	     -3.17007505	    -63.67666393	      4.39016261	    -11.36201191	     20.65623564	      1.81947076	      0.90075412	     19.00444144	    -16.75568581	     -6.12092809	      3.56116606	    -10.72700357	      0.00000000	     -0.01814067	      0.00000000	     -0.07655483	    -14.27318786	      0.98375980	      7.65709677
      0.34166667	      2.41396341	     -3.58577807	     -5.96736290	     -0.30961660	      1.01976717	      0.31014694	     20.96981605	      2.79933588	     -3.26827002	    -63.00703949	      4.58483405	    -11.37546350	     20.65013732	      1.48465772	      0.91108623	     18.99189898	    -16.70010443	     -6.16202148	      3.53152583	    -10.58909726	      0.00000000	     -0.01801986	      0.00000000	      0.05117786	    -14.29071976	      0.97642995	      7.58739324
      0.34583333	      2.54547296	     -3.83882043	     -5.73376897	     -0.30444343	      1.02014814	      0.30992613	     21.14336087	      3.04177450	     -3.58349915	    -62.20082684	      4.99105146	    -11.24687647	     20.47956176	      0.89277151	      0.60847331	     18.90116477	    -16.37777130	     -6.07554964	      3.43895212	    -10.22238719	      0.00000000	     -0.01839315	      0.00000000	      0.16894880	    -14.46305729	      1.32437064	      7.14152635
      0.35000000	      2.56475860	     -3.79540750	     -5.62827234	     -0.29966824	      1.02031728	      0.30988392	     21.54730747	      3.04872553	     -3.63889534	    -61.47801159	      5.10558791	    -11.27127268	     20.45198717	      0.56645925	      0.67353650	     18.89991689	    -16.36268839	     -6.13715020	      3.41850347	    -10.15479918	      0.00000000	     -0.01821625	      0.00000000	      0.28267220	    -14.51204920	      1.26368539	      7.12111110
      0.35416667	      2.58402610	     -3.78615688	     -5.49086403	     -0.29480067	      1.02047673	      0.30979597	     21.91572573	      3.06798047	     -3.76024665	    -60.70153921	      5.27866702	    -11.31623005	     20.41573758	      0.21886207	      0.69098414	     18.89791010	    -16.30409672	     -6.17731357	      3.37804387	    -10.01300814	      0.00000000	     -0.01809004	      0.00000000	      0.41943304	    -14.54732718	      1.24127701	      7.05935503
      0.35833333	      2.62811196	     -3.86700768	     -5.26795007	     -0.28978233	      1.02067063	      0.30962206	     22.18461365	      3.14110683	     -4.01631453	    -59.83793693	      5.55283498	    -11.40570580	     20.32169293	     -0.20030956	      0.58560474	     18.88292342	    -16.13617453	     -6.16178264	      3.29545324	     -9.72747808	      0.00000000	     -0.01810565	      0.00000000	      0.58525230	    -14.60510038	      1.34463799	      6.87667201
      0.36250000	      2.89370676	     -4.15766676	     -5.01121275	     -0.28480404	      1.02125772	      0.30937294	     22.12287724	      3.42241200	     -4.32353825	    -58.80071814	      5.75923771	    -11.53228230	     19.87378507	     -0.92660396	      0.25099631	     18.82749895	    -15.81206356	     -6.05866662	      3.22490596	     -9.43866798	      0.00000000	     -0.01842850	      0.00000000	      0.67568235	    -14.96727723	      1.72892976	      6.42993431
      0.36666667	      2.89679226	     -4.09315254	     -4.92766489	     -0.28008508	      1.02131163	      0.30930560	     22.48367951	      3.39138714	     -4.38891895	    -57.94009934	      5.87277019	    -11.58513832	     19.81877742	     -1.23340852	      0.33989730	     18.80959821	    -15.79255278	     -6.10949266	      3.19469164	     -9.39598541	      0.00000000	     -0.01823332	      0.00000000	      0.78371683	    -15.00486379	      1.64613507	      6.42224694
